<svg width="500" height="500" viewBox="0 0 500 500" fill="none" xmlns="http://www.w3.org/2000/svg">
<path d="M186.092 239.625H171.161C170.888 237.693 170.331 235.977 169.49 234.477C168.649 232.955 167.57 231.659 166.251 230.591C164.933 229.523 163.411 228.705 161.683 228.136C159.979 227.568 158.126 227.284 156.126 227.284C152.513 227.284 149.365 228.182 146.683 229.977C144.001 231.75 141.922 234.341 140.445 237.75C138.967 241.136 138.229 245.25 138.229 250.091C138.229 255.068 138.967 259.25 140.445 262.636C141.945 266.023 144.036 268.58 146.717 270.307C149.399 272.034 152.501 272.898 156.024 272.898C158.001 272.898 159.831 272.636 161.513 272.114C163.217 271.591 164.729 270.83 166.047 269.83C167.365 268.807 168.456 267.568 169.32 266.114C170.206 264.659 170.82 263 171.161 261.136L186.092 261.205C185.706 264.409 184.74 267.5 183.195 270.477C181.672 273.432 179.615 276.08 177.024 278.42C174.456 280.739 171.388 282.58 167.82 283.943C164.274 285.284 160.263 285.955 155.786 285.955C149.558 285.955 143.99 284.545 139.081 281.727C134.195 278.909 130.331 274.83 127.49 269.489C124.672 264.148 123.263 257.682 123.263 250.091C123.263 242.477 124.695 236 127.558 230.659C130.422 225.318 134.308 221.25 139.217 218.455C144.126 215.636 149.649 214.227 155.786 214.227C159.831 214.227 163.581 214.795 167.036 215.932C170.513 217.068 173.592 218.727 176.274 220.909C178.956 223.068 181.138 225.716 182.82 228.852C184.524 231.989 185.615 235.58 186.092 239.625Z" fill="white"/>
<path d="M233.291 215.182L250.166 268.227H250.814L267.723 215.182H284.087L260.018 285H240.996L216.893 215.182H233.291ZM376.712 250.091C376.712 257.705 375.268 264.182 372.382 269.523C369.518 274.864 365.609 278.943 360.655 281.761C355.723 284.557 350.178 285.955 344.018 285.955C337.814 285.955 332.246 284.545 327.314 281.727C322.382 278.909 318.484 274.83 315.621 269.489C312.757 264.148 311.325 257.682 311.325 250.091C311.325 242.477 312.757 236 315.621 230.659C318.484 225.318 322.382 221.25 327.314 218.455C332.246 215.636 337.814 214.227 344.018 214.227C350.178 214.227 355.723 215.636 360.655 218.455C365.609 221.25 369.518 225.318 372.382 230.659C375.268 236 376.712 242.477 376.712 250.091ZM361.746 250.091C361.746 245.159 361.007 241 359.53 237.614C358.075 234.227 356.018 231.659 353.359 229.909C350.7 228.159 347.587 227.284 344.018 227.284C340.45 227.284 337.337 228.159 334.678 229.909C332.018 231.659 329.95 234.227 328.473 237.614C327.018 241 326.291 245.159 326.291 250.091C326.291 255.023 327.018 259.182 328.473 262.568C329.95 265.955 332.018 268.523 334.678 270.273C337.337 272.023 340.45 272.898 344.018 272.898C347.587 272.898 350.7 272.023 353.359 270.273C356.018 268.523 358.075 265.955 359.53 262.568C361.007 259.182 361.746 255.023 361.746 250.091Z" fill="#3B82F6"/>
<path d="M450.707 250.707C451.098 250.317 451.098 249.683 450.707 249.293L444.343 242.929C443.953 242.538 443.319 242.538 442.929 242.929C442.538 243.319 442.538 243.953 442.929 244.343L448.586 250L442.929 255.657C442.538 256.047 442.538 256.681 442.929 257.071C443.319 257.462 443.953 257.462 444.343 257.071L450.707 250.707ZM50 250V251L450 251V250V249L50 249V250Z" fill="white"/>
<path d="M186.092 239.625H171.161C170.888 237.693 170.331 235.977 169.49 234.477C168.649 232.955 167.57 231.659 166.251 230.591C164.933 229.523 163.411 228.705 161.683 228.136C159.979 227.568 158.126 227.284 156.126 227.284C152.513 227.284 149.365 228.182 146.683 229.977C144.001 231.75 141.922 234.341 140.445 237.75C138.967 241.136 138.229 245.25 138.229 250.091C138.229 255.068 138.967 259.25 140.445 262.636C141.945 266.023 144.036 268.58 146.717 270.307C149.399 272.034 152.501 272.898 156.024 272.898C158.001 272.898 159.831 272.636 161.513 272.114C163.217 271.591 164.729 270.83 166.047 269.83C167.365 268.807 168.456 267.568 169.32 266.114C170.206 264.659 170.82 263 171.161 261.136L186.092 261.205C185.706 264.409 184.74 267.5 183.195 270.477C181.672 273.432 179.615 276.08 177.024 278.42C174.456 280.739 171.388 282.58 167.82 283.943C164.274 285.284 160.263 285.955 155.786 285.955C149.558 285.955 143.99 284.545 139.081 281.727C134.195 278.909 130.331 274.83 127.49 269.489C124.672 264.148 123.263 257.682 123.263 250.091C123.263 242.477 124.695 236 127.558 230.659C130.422 225.318 134.308 221.25 139.217 218.455C144.126 215.636 149.649 214.227 155.786 214.227C159.831 214.227 163.581 214.795 167.036 215.932C170.513 217.068 173.592 218.727 176.274 220.909C178.956 223.068 181.138 225.716 182.82 228.852C184.524 231.989 185.615 235.58 186.092 239.625Z" fill="white"/>
<path d="M233.291 215.182L250.166 268.227H250.814L267.723 215.182H284.087L260.018 285H240.996L216.893 215.182H233.291ZM376.712 250.091C376.712 257.705 375.268 264.182 372.382 269.523C369.518 274.864 365.609 278.943 360.655 281.761C355.723 284.557 350.178 285.955 344.018 285.955C337.814 285.955 332.246 284.545 327.314 281.727C322.382 278.909 318.484 274.83 315.621 269.489C312.757 264.148 311.325 257.682 311.325 250.091C311.325 242.477 312.757 236 315.621 230.659C318.484 225.318 322.382 221.25 327.314 218.455C332.246 215.636 337.814 214.227 344.018 214.227C350.178 214.227 355.723 215.636 360.655 218.455C365.609 221.25 369.518 225.318 372.382 230.659C375.268 236 376.712 242.477 376.712 250.091ZM361.746 250.091C361.746 245.159 361.007 241 359.53 237.614C358.075 234.227 356.018 231.659 353.359 229.909C350.7 228.159 347.587 227.284 344.018 227.284C340.45 227.284 337.337 228.159 334.678 229.909C332.018 231.659 329.95 234.227 328.473 237.614C327.018 241 326.291 245.159 326.291 250.091C326.291 255.023 327.018 259.182 328.473 262.568C329.95 265.955 332.018 268.523 334.678 270.273C337.337 272.023 340.45 272.898 344.018 272.898C347.587 272.898 350.7 272.023 353.359 270.273C356.018 268.523 358.075 265.955 359.53 262.568C361.007 259.182 361.746 255.023 361.746 250.091Z" fill="#3B82F6"/>
<path d="M450.707 250.707C451.098 250.317 451.098 249.683 450.707 249.293L444.343 242.929C443.953 242.538 443.319 242.538 442.929 242.929C442.538 243.319 442.538 243.953 442.929 244.343L448.586 250L442.929 255.657C442.538 256.047 442.538 256.681 442.929 257.071C443.319 257.462 443.953 257.462 444.343 257.071L450.707 250.707ZM50 250V251L450 251V250V249L50 249V250Z" fill="white"/>
</svg>
